<svg height="483pt" viewBox="0 -1 483.43969 483" width="483pt" xmlns="http://www.w3.org/2000/svg" xmlns:xlink="http://www.w3.org/1999/xlink"><linearGradient id="a"><stop offset="0" stop-color="#e93e3a"/><stop offset=".35" stop-color="#ed683c"/><stop offset=".7" stop-color="#f3903f"/><stop offset="1" stop-color="#fdc70c"/></linearGradient><linearGradient id="b" gradientUnits="userSpaceOnUse" x1="241.72" x2="241.72" xlink:href="#a" y1="478.091845" y2="-15.084155"/><linearGradient id="c" gradientUnits="userSpaceOnUse" x1="240" x2="240" xlink:href="#a" y1="478.091845" y2="-15.084155"/><linearGradient id="d" gradientUnits="userSpaceOnUse" x1="288" x2="288" xlink:href="#a" y1="478.091845" y2="-15.084155"/><path d="m479.734375 334.691406c-4.46875-9.617187-12.578125-17.058594-22.542969-20.683594s-20.964844-3.132812-30.566406 1.363282l-103.65625 48.257812c6.875-12.390625 6.679688-27.488281-.503906-39.699218-7.1875-12.210938-20.296875-19.707032-34.464844-19.710938h-120c-21.628906-.015625-41.324219 12.449219-50.566406 32h-21.433594v-24c0-4.417969-3.582031-8-8-8h-80c-4.417969 0-8 3.582031-8 8v160c0 4.417969 3.582031 8 8 8h80c4.417969 0 8-3.582031 8-8v-16h208.902344c5.84375-.003906 11.613281-1.285156 16.914062-3.742188l138.625-64.617187c19.929688-9.425781 28.539063-33.152344 19.292969-53.167969zm-399.734375 129.527344h-64v-144h64zm373.65625-90.847656-138.601562 64.601562c-3.179688 1.476563-6.644532 2.242188-10.152344 2.246094h-208.902344v-88h26.800781c3.402344 0 6.433594-2.160156 7.550781-5.375 5.617188-15.972656 20.714844-26.652344 37.648438-26.625h120c13.253906 0 24 10.746094 24 24 0 13.257812-10.746094 24-24 24h-72v16h91.800781c5.832031-.007812 11.589844-1.285156 16.878907-3.742188l108.71875-50.617187c11.960937-5.601563 26.199218-.441406 31.792968 11.519531 1.476563 3.199219 2.242188 6.679688 2.25 10.199219-.003906 9.316406-5.371094 17.796875-13.785156 21.792969zm0 0" fill="url(#b)"/><path d="m296 72.21875v-16c0-30.925781-25.070312-56-56-56s-56 25.074219-56 56v16c0 30.929688 25.070312 56 56 56s56-25.070312 56-56zm-56-56c19 .023438 35.371094 13.390625 39.199219 32h-34.253907l-5.746093-11.574219c-1.148438-2.296875-3.332031-3.898437-5.867188-4.3125-2.535156-.410156-5.113281.417969-6.933593 2.230469l-13.710938 13.65625h-11.886719c3.828125-18.609375 20.199219-31.976562 39.199219-32zm0 96c-22.082031-.023438-39.972656-17.917969-40-40v-8h16c2.121094 0 4.15625-.84375 5.65625-2.34375l8.152344-8.152344 3.03125 6.074219c1.355468 2.710937 4.128906 4.425781 7.160156 4.421875h40v8c-.027344 22.082031-17.917969 39.976562-40 40zm0 0" fill="url(#c)"/><path d="m152 288.21875h176c8.835938 0 16-7.164062 16-16v-56c0-13.261719-3.007812-26.355469-8.800781-38.285156-14.789063-30.292969-45.492188-49.5625-79.199219-49.714844h-32c-48.578125.058594-87.941406 39.421875-88 88v56c0 8.835938 7.164062 16 16 16zm168.800781-103.285156c4.761719 9.738281 7.226563 20.441406 7.199219 31.285156v56h-80v-76.6875l42.304688-42.304688c13.210937 7.144532 23.867187 18.226563 30.496093 31.707032zm-64.800781-40.714844c6.148438.039062 12.265625.875 18.199219 2.488281l-34.199219 34.199219-34.191406-34.199219c5.929687-1.613281 12.046875-2.449219 18.191406-2.488281zm-104 72c-.035156-10.847656 2.425781-21.558594 7.199219-31.304688 6.625-13.472656 17.285156-24.550781 30.496093-31.6875l42.304688 42.304688v76.6875h-80zm0 0" fill="url(#c)"/><path d="m272 200.21875h32v16h-32zm0 0" fill="url(#d)"/></svg>